HIERARCHY
ROOT Hips
{
    OFFSET 0.000000 0.000000 0.000000
    CHANNELS 6 Xposition Yposition Zposition Zrotation Xrotation Yrotation
    JOINT Spine
    {
        OFFSET -0.000000 6.993131 0.000000
        CHANNELS 3 Zrotation Xrotation Yrotation
        JOINT Spine1
        {
            OFFSET -0.000000 20.649729 0.000000
            CHANNELS 3 Zrotation Xrotation Yrotation
            JOINT Neck
            {
                OFFSET -0.000000 20.564924 1.869539
                CHANNELS 3 Zrotation Xrotation Yrotation
                JOINT Head
                {
                    OFFSET -0.000000 11.939490 -1.705642
                    CHANNELS 3 Zrotation Xrotation Yrotation
                    End Site
                    {
                        OFFSET -0.000000 21.320518 0.000000
                    }
                }
            }
            JOINT LeftShoulder
            {
                OFFSET 3.446977 19.850397 -0.038759
                CHANNELS 3 Zrotation Xrotation Yrotation
                JOINT LeftArm
                {
                    OFFSET 7.083611 0.000000 0.000000
                    CHANNELS 3 Zrotation Xrotation Yrotation
                    JOINT LeftForeArm
                    {
                        OFFSET 32.044487 0.000000 0.000000
                        CHANNELS 3 Zrotation Xrotation Yrotation
                        JOINT LeftHand
                        {
                            OFFSET 22.068741 0.000000 0.000000
                            CHANNELS 3 Zrotation Xrotation Yrotation
                            End Site
                            {
                                OFFSET 12.792312 0.000000 0.000000
                            }
                        }
                    }
                }
            }
            JOINT RightShoulder
            {
                OFFSET -3.365844 19.850397 -0.038759
                CHANNELS 3 Zrotation Xrotation Yrotation
                JOINT RightArm
                {
                    OFFSET -7.083611 0.000000 0.000000
                    CHANNELS 3 Zrotation Xrotation Yrotation
                    JOINT RightForeArm
                    {
                        OFFSET -32.044487 0.000000 0.000000
                        CHANNELS 3 Zrotation Xrotation Yrotation
                        JOINT RightHand
                        {
                            OFFSET -22.068741 0.000000 0.000000
                            CHANNELS 3 Zrotation Xrotation Yrotation
                            End Site
                            {
                                OFFSET -12.792312 0.000000 0.000000
                            }
                        }
                    }
                }
            }
        }
    }
    JOINT LeftUpLeg
    {
        OFFSET 8.528208 0.000000 0.000000
        CHANNELS 3 Zrotation Xrotation Yrotation
        JOINT LeftLeg
        {
            OFFSET -0.000000 -31.874865 0.000000
            CHANNELS 3 Zrotation Xrotation Yrotation
            JOINT LeftFoot
            {
                OFFSET -0.000000 -38.221939 0.000000
                CHANNELS 3 Zrotation Xrotation Yrotation
                JOINT LeftToeBase
                {
                    OFFSET -0.000000 -5.543335 12.792312
                    CHANNELS 3 Zrotation Xrotation Yrotation
                    End Site
                    {
                        OFFSET -0.000000 0.000000 3.411283
                    }
                }
            }
        }
    }
    JOINT RightUpLeg
    {
        OFFSET -8.528208 0.000000 0.000000
        CHANNELS 3 Zrotation Xrotation Yrotation
        JOINT RightLeg
        {
            OFFSET -0.000000 -31.874865 0.000000
            CHANNELS 3 Zrotation Xrotation Yrotation
            JOINT RightFoot
            {
                OFFSET -0.000000 -38.221939 0.000000
                CHANNELS 3 Zrotation Xrotation Yrotation
                JOINT RightToeBase
                {
                    OFFSET -0.000000 -5.543335 12.792312
                    CHANNELS 3 Zrotation Xrotation Yrotation
                    End Site
                    {
                        OFFSET -0.000000 0.000000 3.411283
                    }
                }
            }
        }
    }
}
MOTION
Frames:    5
Frame Time:    0.008333
34.811340    75.727715    29.724199    -0.212945    1.731806    91.246399    -0.464039    -3.886135    0.017062    -4.489365    2.630075    0.136042    3.689184    9.972690    7.865463    -3.654733    -1.393628    7.407767    22.615370    -0.101331    1.664042    -17.112251    -1.245780    -11.638954    -0.000000    -7.635245    -0.000000    15.965640    -16.116859    -56.636211    -12.043062    0.649176    -0.245854    9.868750    0.107158    3.501899    -7.663117    4.604817    5.551887    14.381463    5.032335    0.451172    -2.954642    -2.202604    0.379819    2.925494    10.953576    0.359426    -2.300256    -10.330231    -2.414186    0.000000    0.000000    0.000000    -13.601361    3.210997    1.074840    12.765532    -0.718495    0.984879    -4.435864    -3.339499    -6.864804    0.000000    0.000000    0.000000    
34.810387    75.726593    29.717588    -0.185947    1.731835    91.210960    -0.433155    -3.903602    0.002370    -4.508498    2.643674    0.120890    3.625474    9.934716    7.929419    -3.627089    -1.289432    7.484372    22.583199    -0.089793    1.681994    -17.116091    -1.207066    -11.591614    2.095532    1.320924    -5.660668    -13.705001    1.778496    -2.946048    -12.043840    0.657009    -0.202367    9.947517    0.157946    3.555304    -7.645125    4.651775    5.555009    14.313155    5.101446    0.635994    -2.960074    -2.147380    0.388867    2.930573    10.908253    0.326355    -2.319968    -10.327202    -2.378745    0.000000    0.000000    0.000000    -13.611748    3.237536    1.110425    12.771687    -0.742374    0.963591    -4.423311    -3.334115    -6.837314    0.000000    0.000000    0.000000    
34.807816    75.725677    29.715878    -0.178559    1.724248    91.200409    -0.430013    -3.916389    -0.000714    -4.481020    2.644132    0.117805    3.582544    9.936486    7.952857    -3.610739    -1.257331    7.514875    22.531786    -0.102269    1.664052    -17.108873    -1.205451    -11.552461    2.092374    1.332216    -5.686240    -13.759530    1.796256    -2.985294    -12.060205    0.682951    -0.195202    9.975289    0.112949    3.598459    -7.575281    4.560091    5.602816    14.019677    4.971050    0.334864    -2.950163    -2.130679    0.391568    2.922483    10.895341    0.339103    -2.308719    -10.333483    -2.367336    0.000000    0.000000    0.000000    -13.609792    3.242768    1.129787    12.780285    -0.748015    0.989243    -4.427839    -3.322143    -6.876503    0.000000    0.000000    0.000000    
34.807724    75.724426    29.714579    -0.165264    1.723249    91.184616    -0.434316    -3.920906    -0.004974    -4.462378    2.636414    0.111825    3.550267    9.957833    7.969340    -3.596393    -1.248238    7.537100    22.508562    -0.094350    1.670886    -17.114859    -1.203652    -11.542182    2.076494    1.292664    -5.692488    -13.783240    1.747667    -2.911290    -12.062185    0.663343    -0.165302    10.008608    0.197539    3.610988    -7.628417    4.527876    5.598768    14.183306    4.955415    0.445653    -2.949368    -2.107042    0.396325    2.919503    10.873245    0.376066    -2.306990    -10.339684    -2.395621    0.000000    0.000000    0.000000    -13.607099    3.256077    1.136472    12.768003    -0.762146    0.988674    -4.419398    -3.324215    -6.851308    0.000000    0.000000    0.000000    
34.807838    75.723434    29.710928    -0.147023    1.726339    91.178940    -0.403873    -3.914432    -0.013801    -4.513909    2.620943    0.095410    3.564265    9.990063    7.989672    -3.611879    -1.257534    7.555883    22.525875    -0.078560    1.675787    -17.125214    -1.176735    -11.511311    2.098982    1.294990    -5.737668    -13.813046    1.742473    -2.826391    -12.019917    0.676037    -0.144318    10.024215    0.211444    3.644233    -7.637276    4.490321    5.606919    14.221013    4.922584    0.474539    -2.949823    -2.079727    0.385149    2.907024    10.864017    0.396119    -2.287795    -10.343414    -2.393643    0.000000    0.000000    0.000000    -13.614623    3.275654    1.136583    12.770042    -0.758922    1.015667    -4.421658    -3.330924    -6.865826    0.000000    0.000000    0.000000    
